<?xml version="1.0" encoding="UTF-8"?>
<svg xmlns="http://www.w3.org/2000/svg" xmlns:xlink="http://www.w3.org/1999/xlink" width="1000px" height="623px" viewBox="0 0 237 148" version="1.1">
<defs>
<clipPath id="clip1">
  <path d="M 80.90625 0.597656 L 155.804688 0.597656 L 155.804688 147.519531 L 80.90625 147.519531 Z M 80.90625 0.597656 "/>
</clipPath>
<clipPath id="clip2">
  <path d="M 23.785156 60.789062 L 212.929688 60.789062 L 212.929688 87.328125 L 23.785156 87.328125 Z M 23.785156 60.789062 "/>
</clipPath>
</defs>
<g id="surface1">
<g clip-path="url(#clip1)" clip-rule="nonzero">
<path style=" stroke:none;fill-rule:nonzero;fill:rgb(48.235294%,30.588235%,45.882353%);fill-opacity:1;" d="M 153.894531 147.519531 L 82.816406 147.519531 C 81.761719 147.519531 80.90625 146.664062 80.90625 145.605469 L 80.90625 2.511719 C 80.90625 1.457031 81.761719 0.597656 82.816406 0.597656 L 153.894531 0.597656 C 154.953125 0.597656 155.804688 1.457031 155.804688 2.511719 L 155.804688 145.605469 C 155.804688 146.664062 154.953125 147.519531 153.894531 147.519531 Z M 84.726562 143.691406 L 151.988281 143.691406 L 151.988281 4.429688 L 84.726562 4.429688 Z M 84.726562 143.691406 "/>
</g>
<path style=" stroke:none;fill-rule:nonzero;fill:rgb(48.235294%,30.588235%,45.882353%);fill-opacity:1;" d="M 145.109375 122.21875 L 91.601562 122.21875 C 91.078125 122.21875 90.648438 121.789062 90.648438 121.261719 L 90.648438 18.546875 C 90.648438 18.015625 91.078125 17.589844 91.601562 17.589844 L 145.109375 17.589844 C 145.636719 17.589844 146.066406 18.015625 146.066406 18.546875 L 146.066406 121.265625 C 146.066406 121.792969 145.636719 122.21875 145.109375 122.21875 Z M 92.558594 120.304688 L 144.15625 120.304688 L 144.15625 19.503906 L 92.558594 19.503906 Z M 92.558594 120.304688 "/>
<path style=" stroke:none;fill-rule:nonzero;fill:rgb(48.235294%,30.588235%,45.882353%);fill-opacity:1;" d="M 118.355469 140.265625 C 114.335938 140.265625 111.066406 136.988281 111.066406 132.957031 C 111.066406 128.929688 114.335938 125.652344 118.355469 125.652344 C 122.375 125.652344 125.644531 128.929688 125.644531 132.957031 C 125.644531 136.988281 122.375 140.265625 118.355469 140.265625 Z M 118.355469 127.5625 C 115.390625 127.5625 112.976562 129.980469 112.976562 132.953125 C 112.976562 135.929688 115.390625 138.347656 118.355469 138.347656 C 121.324219 138.347656 123.734375 135.925781 123.734375 132.953125 C 123.734375 129.980469 121.328125 127.5625 118.355469 127.5625 Z M 118.355469 127.5625 "/>
<path style=" stroke:none;fill-rule:nonzero;fill:rgb(48.235294%,30.588235%,45.882353%);fill-opacity:1;" d="M 124.691406 12.375 L 112.019531 12.375 C 111.492188 12.375 111.066406 11.945312 111.066406 11.417969 C 111.066406 10.890625 111.492188 10.460938 112.019531 10.460938 L 124.691406 10.460938 C 125.21875 10.460938 125.644531 10.890625 125.644531 11.417969 C 125.644531 11.945312 125.222656 12.375 124.691406 12.375 Z M 124.691406 12.375 "/>
<path style=" stroke:none;fill-rule:nonzero;fill:rgb(100%,100%,100%);fill-opacity:1;" d="M 14.324219 54.523438 L 222.386719 54.523438 L 222.386719 93.59375 L 14.324219 93.59375 Z M 14.324219 54.523438 "/>
<g clip-path="url(#clip2)" clip-rule="nonzero">
<path style=" stroke:none;fill-rule:nonzero;fill:rgb(0%,0%,0%);fill-opacity:1;" d="M 37.046875 78.566406 L 33.828125 78.601562 L 33.828125 83.929688 L 38.164062 84.699219 L 38.128906 86.628906 L 24 86.628906 L 23.789062 85.507812 C 24.417969 84.992188 25.316406 84.429688 26.484375 83.824219 L 26.484375 65.664062 L 23.824219 65.207031 L 23.859375 63.28125 L 36.695312 63 C 39.5625 62.976562 41.914062 63.714844 43.746094 65.222656 C 45.574219 66.730469 46.488281 68.65625 46.488281 70.992188 C 46.488281 73.1875 45.601562 74.992188 43.832031 76.40625 C 42.058594 77.820312 39.796875 78.542969 37.046875 78.566406 Z M 37.570312 66.398438 L 33.828125 66.925781 L 33.828125 74.671875 C 34.457031 74.859375 35.085938 74.953125 35.714844 74.953125 C 36.835938 74.953125 37.683594 74.566406 38.257812 73.796875 C 38.824219 73.027344 39.109375 72.066406 39.109375 70.921875 C 39.109375 70.035156 38.96875 69.144531 38.691406 68.257812 C 38.410156 67.371094 38.035156 66.75 37.570312 66.398438 Z M 66.285156 74.988281 L 66.285156 83.542969 L 68.523438 84.910156 L 68.488281 86.628906 L 59.253906 86.628906 L 59.253906 77.058594 C 59.253906 74.71875 58.4375 73.597656 56.808594 73.691406 L 55.863281 73.867188 L 55.863281 83.71875 L 57.714844 84.910156 L 57.679688 86.628906 L 46.246094 86.628906 L 46.210938 85.402344 C 47.003906 84.910156 47.875 84.488281 48.832031 84.140625 L 48.832031 64.578125 L 46.210938 63.910156 L 46.140625 62.15625 C 48.355469 61.386719 50.90625 60.929688 53.800781 60.789062 L 55.863281 62.683594 L 55.863281 71.660156 C 57.425781 70.511719 58.964844 69.683594 60.480469 69.167969 C 61.386719 69.121094 62.355469 69.285156 63.382812 69.660156 C 64.40625 70.035156 65.234375 70.722656 65.867188 71.730469 C 66.121094 72.195312 66.261719 73.28125 66.285156 74.988281 Z M 68.699219 78.039062 C 68.699219 75.375 69.554688 73.195312 71.265625 71.496094 C 72.980469 69.804688 75.144531 68.960938 77.75 68.960938 C 80.390625 68.960938 82.558594 69.816406 84.261719 71.53125 C 85.964844 73.253906 86.816406 75.46875 86.816406 78.179688 C 86.816406 80.890625 85.980469 83.09375 84.3125 84.785156 C 82.648438 86.480469 80.519531 87.328125 77.925781 87.328125 C 75.292969 87.328125 73.097656 86.457031 71.335938 84.714844 C 69.578125 82.976562 68.699219 80.75 68.699219 78.039062 Z M 78.769531 83.753906 C 79.425781 83.191406 79.75 81.476562 79.75 78.601562 C 79.75 74.695312 79.015625 72.746094 77.546875 72.746094 C 77.152344 72.746094 76.835938 72.828125 76.601562 72.992188 C 76.042969 73.855469 75.761719 75.609375 75.761719 78.25 C 75.761719 82.011719 76.519531 83.894531 78.035156 83.894531 C 78.269531 83.894531 78.515625 83.847656 78.769531 83.753906 Z M 107.652344 74.988281 L 107.652344 83.542969 C 108.65625 83.964844 109.496094 84.417969 110.171875 84.910156 L 110.101562 86.628906 L 100.625 86.628906 L 100.625 77.058594 C 100.625 74.71875 99.808594 73.597656 98.175781 73.691406 L 97.195312 73.867188 L 97.195312 83.683594 L 99.121094 84.910156 L 99.085938 86.628906 L 87.578125 86.628906 L 87.542969 85.402344 C 88.335938 84.910156 89.210938 84.488281 90.167969 84.140625 L 90.167969 72.746094 L 87.542969 72.078125 L 87.472656 70.359375 C 89.710938 69.566406 92.265625 69.109375 95.132812 68.992188 L 97.195312 71.132812 L 97.195312 71.695312 C 98.804688 70.523438 100.355469 69.683594 101.847656 69.167969 C 102.757812 69.121094 103.726562 69.285156 104.75 69.660156 C 105.777344 70.035156 106.605469 70.722656 107.234375 71.730469 C 107.492188 72.195312 107.628906 73.28125 107.652344 74.988281 Z M 127.625 76.882812 L 125.5625 78.949219 L 116.851562 78.914062 C 117.085938 80.175781 117.632812 81.148438 118.496094 81.824219 C 119.359375 82.503906 120.429688 82.84375 121.714844 82.84375 C 122.996094 82.84375 124.476562 82.386719 126.15625 81.476562 L 127.136719 83.648438 L 121.609375 87.015625 C 120.910156 87.152344 120.210938 87.222656 119.511719 87.222656 C 116.851562 87.222656 114.65625 86.398438 112.921875 84.75 C 111.183594 83.105469 110.3125 80.972656 110.3125 78.355469 C 110.3125 75.691406 111.210938 73.457031 113.003906 71.660156 C 114.800781 69.859375 116.980469 68.960938 119.546875 68.960938 C 121.925781 68.960938 123.867188 69.675781 125.371094 71.113281 C 126.875 72.550781 127.625 74.476562 127.625 76.882812 Z M 118.847656 72.148438 C 117.914062 72.78125 117.261719 74.054688 116.886719 75.96875 L 121.363281 75.65625 C 121.246094 74.742188 120.964844 73.953125 120.511719 73.285156 C 120.054688 72.621094 119.5 72.242188 118.847656 72.148438 Z M 158.4375 74.988281 L 158.4375 83.4375 C 159.535156 83.882812 160.453125 84.371094 161.199219 84.910156 L 161.132812 86.628906 L 151.40625 86.628906 L 151.40625 77.058594 C 151.40625 74.71875 150.59375 73.597656 148.960938 73.691406 L 148.015625 73.867188 L 148.050781 83.683594 L 150.007812 84.910156 L 149.9375 86.628906 L 141.019531 86.628906 L 141.019531 77.058594 C 141.019531 74.71875 140.203125 73.597656 138.570312 73.691406 L 137.664062 73.867188 L 137.664062 83.683594 L 139.585938 84.910156 L 139.550781 86.628906 L 128.042969 86.628906 L 128.007812 85.402344 C 128.800781 84.910156 129.675781 84.488281 130.632812 84.140625 L 130.632812 72.746094 L 128.007812 72.078125 L 127.941406 70.359375 C 130.179688 69.566406 132.730469 69.109375 135.597656 68.992188 L 137.664062 71.132812 L 137.664062 71.660156 C 139.226562 70.511719 140.753906 69.683594 142.246094 69.167969 C 143.152344 69.121094 144.121094 69.285156 145.148438 69.660156 C 146.171875 70.035156 147 70.722656 147.628906 71.730469 C 147.675781 71.773438 147.699219 71.832031 147.699219 71.902344 C 149.402344 70.640625 151.046875 69.730469 152.632812 69.167969 C 153.542969 69.121094 154.507812 69.285156 155.535156 69.660156 C 156.5625 70.035156 157.390625 70.722656 158.019531 71.730469 C 158.273438 72.195312 158.414062 73.28125 158.4375 74.988281 Z M 181.171875 82.773438 L 181.277344 84.347656 L 176.277344 87.222656 C 174.691406 87.222656 173.382812 86.359375 172.359375 84.628906 L 168.722656 87.050781 L 167.390625 87.152344 C 165.828125 87.152344 164.523438 86.691406 163.472656 85.765625 C 162.425781 84.84375 161.902344 83.765625 161.902344 82.527344 C 161.902344 81.730469 162.148438 80.945312 162.648438 80.164062 C 163.152344 79.378906 163.894531 78.738281 164.875 78.25 L 171.449219 78.109375 L 171.449219 75.480469 C 171.449219 73.75 170.925781 72.605469 169.875 72.042969 C 169.363281 72.089844 168.929688 72.207031 168.582031 72.394531 L 167.566406 76.320312 L 163.578125 76.355469 C 163.183594 75 162.984375 73.691406 162.984375 72.429688 L 163.125 70.710938 C 164.617188 70.175781 166.300781 69.742188 168.175781 69.414062 C 170.054688 69.085938 171.566406 68.925781 172.707031 68.925781 C 174.96875 68.925781 176.753906 69.789062 178.058594 71.519531 C 178.339844 71.9375 178.480469 73.015625 178.480469 74.742188 L 178.480469 81.753906 C 178.480469 82.480469 178.757812 82.84375 179.316406 82.84375 L 180.472656 82.808594 Z M 168.753906 82 C 168.753906 82.585938 168.929688 83.074219 169.28125 83.472656 L 171.449219 83.015625 L 171.449219 80.386719 C 169.652344 80.386719 168.753906 80.925781 168.753906 82 Z M 199.175781 72.042969 L 194.804688 77.40625 C 193.078125 75.914062 191.679688 75.058594 190.609375 74.847656 L 190.609375 83.121094 C 192.242188 83.707031 193.535156 84.300781 194.492188 84.910156 L 194.457031 86.628906 L 180.988281 86.628906 L 180.957031 85.402344 C 181.746094 84.910156 182.621094 84.488281 183.578125 84.140625 L 183.578125 72.746094 L 180.957031 72.078125 L 180.886719 70.359375 C 183.125 69.566406 185.675781 69.109375 188.542969 68.992188 L 190.609375 72.078125 L 193.054688 69.203125 C 193.5 69.0625 193.988281 68.992188 194.527344 68.992188 C 195.574219 68.992188 196.542969 69.265625 197.429688 69.8125 C 198.316406 70.367188 198.898438 71.109375 199.175781 72.042969 Z M 211.140625 74.394531 L 208.410156 74.394531 L 208.410156 80.878906 C 208.410156 81.789062 208.867188 82.246094 209.773438 82.246094 L 212.433594 82.105469 L 212.574219 83.964844 L 206.382812 87.222656 C 205.101562 87.269531 203.953125 86.890625 202.941406 86.082031 C 201.925781 85.277344 201.402344 84.3125 201.378906 83.191406 L 201.378906 74.359375 L 198.652344 74.359375 L 198.617188 72.394531 C 199.480469 71.601562 200.53125 70.78125 201.765625 69.941406 L 203.863281 65.136719 L 207.011719 65.136719 L 208.164062 70.011719 L 212.921875 70.011719 L 212.921875 72.007812 Z M 211.140625 74.394531 "/>
</g>
</g>
</svg>
